<?xml version="1.0" encoding="UTF-8"?>
<!DOCTYPE svg PUBLIC "-//W3C//DTD SVG 1.1//EN" "http://www.w3.org/Graphics/SVG/1.1/DTD/svg11.dtd">
<svg version="1.2" width="72.12mm" height="72.12mm" viewBox="1644 3794 7212 7212" preserveAspectRatio="xMidYMid"
     fill-rule="evenodd" stroke-width="28.222" stroke-linejoin="round" xmlns="http://www.w3.org/2000/svg"
     xmlns:ooo="http://xml.openoffice.org/svg/export"
     xml:space="preserve">
 <defs class="ClipPathGroup">
  <clipPath id="presentation_clip_path" clipPathUnits="userSpaceOnUse">
   <rect x="1644" y="3794" width="7212" height="7212"/>
  </clipPath>
  <clipPath id="presentation_clip_path_shrink" clipPathUnits="userSpaceOnUse">
   <rect x="1651" y="3801" width="7198" height="7198"/>
  </clipPath>
 </defs>
 <defs class="TextShapeIndex">
  <g ooo:slide="id1" ooo:id-list="id3 id4 id5"/>
 </defs>
 <defs class="EmbeddedBulletChars">
  <g id="bullet-char-template-57356" transform="scale(0.00048828125,-0.00048828125)">
   <path d="M 580,1141 L 1163,571 580,0 -4,571 580,1141 Z"/>
  </g>
  <g id="bullet-char-template-57354" transform="scale(0.00048828125,-0.00048828125)">
   <path d="M 8,1128 L 1137,1128 1137,0 8,0 8,1128 Z"/>
  </g>
  <g id="bullet-char-template-10146" transform="scale(0.00048828125,-0.00048828125)">
   <path d="M 174,0 L 602,739 174,1481 1456,739 174,0 Z M 1358,739 L 309,1346 659,739 1358,739 Z"/>
  </g>
  <g id="bullet-char-template-10132" transform="scale(0.00048828125,-0.00048828125)">
   <path d="M 2015,739 L 1276,0 717,0 1260,543 174,543 174,936 1260,936 717,1481 1274,1481 2015,739 Z"/>
  </g>
  <g id="bullet-char-template-10007" transform="scale(0.00048828125,-0.00048828125)">
   <path d="M 0,-2 C -7,14 -16,27 -25,37 L 356,567 C 262,823 215,952 215,954 215,979 228,992 255,992 264,992 276,990 289,987 310,991 331,999 354,1012 L 381,999 492,748 772,1049 836,1024 860,1049 C 881,1039 901,1025 922,1006 886,937 835,863 770,784 769,783 710,716 594,584 L 774,223 C 774,196 753,168 711,139 L 727,119 C 717,90 699,76 672,76 641,76 570,178 457,381 L 164,-76 C 142,-110 111,-127 72,-127 30,-127 9,-110 8,-76 1,-67 -2,-52 -2,-32 -2,-23 -1,-13 0,-2 Z"/>
  </g>
  <g id="bullet-char-template-10004" transform="scale(0.00048828125,-0.00048828125)">
   <path d="M 285,-33 C 182,-33 111,30 74,156 52,228 41,333 41,471 41,549 55,616 82,672 116,743 169,778 240,778 293,778 328,747 346,684 L 369,508 C 377,444 397,411 428,410 L 1163,1116 C 1174,1127 1196,1133 1229,1133 1271,1133 1292,1118 1292,1087 L 1292,965 C 1292,929 1282,901 1262,881 L 442,47 C 390,-6 338,-33 285,-33 Z"/>
  </g>
  <g id="bullet-char-template-9679" transform="scale(0.00048828125,-0.00048828125)">
   <path d="M 813,0 C 632,0 489,54 383,161 276,268 223,411 223,592 223,773 276,916 383,1023 489,1130 632,1184 813,1184 992,1184 1136,1130 1245,1023 1353,916 1407,772 1407,592 1407,412 1353,268 1245,161 1136,54 992,0 813,0 Z"/>
  </g>
  <g id="bullet-char-template-8226" transform="scale(0.00048828125,-0.00048828125)">
   <path d="M 346,457 C 273,457 209,483 155,535 101,586 74,649 74,723 74,796 101,859 155,911 209,963 273,989 346,989 419,989 480,963 531,910 582,859 608,796 608,723 608,648 583,586 532,535 482,483 420,457 346,457 Z"/>
  </g>
  <g id="bullet-char-template-8211" transform="scale(0.00048828125,-0.00048828125)">
   <path d="M -4,459 L 1135,459 1135,606 -4,606 -4,459 Z"/>
  </g>
  <g id="bullet-char-template-61548" transform="scale(0.00048828125,-0.00048828125)">
   <path d="M 173,740 C 173,903 231,1043 346,1159 462,1274 601,1332 765,1332 928,1332 1067,1274 1183,1159 1299,1043 1357,903 1357,740 1357,577 1299,437 1183,322 1067,206 928,148 765,148 601,148 462,206 346,322 231,437 173,577 173,740 Z"/>
  </g>
 </defs>
 <defs class="TextEmbeddedBitmaps"/>
 <g class="SlideGroup">
  <g>
   <g id="container-id1">
    <g id="id1" class="Slide" clip-path="url(#presentation_clip_path)">
     <g class="Page">
      <g class="Group">
       <g class="com.sun.star.drawing.CustomShape">
        <g id="id3">
         <rect class="BoundingBox" stroke="none" fill="none" x="1644" y="3794" width="7213" height="7213"/>
         <path fill="rgb(0,123,255)" stroke="none" d="M 5250,3795 C 5914,3795 6478,3946 7053,4278 7628,4609 8041,5022 8372,5597 8704,6172 8856,6736 8856,7400 8856,8064 8704,8628 8372,9203 8041,9778 7628,10191 7053,10522 6478,10854 5914,11006 5250,11006 4586,11006 4022,10854 3447,10522 2872,10191 2459,9778 2128,9203 1796,8628 1645,8064 1645,7400 1644,6736 1796,6172 2128,5597 2459,5022 2872,4609 3447,4278 4022,3946 4586,3795 5250,3795 L 5250,3795 Z"/>
         <path fill="none" stroke="rgb(0,123,255)" d="M 5250,3795 C 5914,3795 6478,3946 7053,4278 7628,4609 8041,5022 8372,5597 8704,6172 8856,6736 8856,7400 8856,8064 8704,8628 8372,9203 8041,9778 7628,10191 7053,10522 6478,10854 5914,11006 5250,11006 4586,11006 4022,10854 3447,10522 2872,10191 2459,9778 2128,9203 1796,8628 1645,8064 1645,7400 1644,6736 1796,6172 2128,5597 2459,5022 2872,4609 3447,4278 4022,3946 4586,3795 5250,3795 L 5250,3795 Z"/>
        </g>
       </g>
       <g class="com.sun.star.drawing.CustomShape">
        <g id="id4">
         <rect class="BoundingBox" stroke="none" fill="none" x="2003" y="4153" width="6493" height="6493"/>
         <path fill="rgb(35,35,35)" stroke="none" d="M 5249,4154 C 5846,4154 6354,4290 6872,4589 7389,4887 7761,5259 8059,5776 8358,6294 8494,6802 8494,7399 8494,7996 8358,8504 8059,9022 7761,9539 7389,9911 6872,10209 6354,10508 5846,10644 5249,10644 4652,10644 4144,10508 3627,10209 3109,9911 2737,9539 2439,9022 2140,8504 2004,7996 2004,7399 2004,6802 2140,6294 2439,5777 2737,5259 3109,4887 3626,4589 4144,4290 4652,4154 5249,4154 L 5249,4154 Z"/>
         <path fill="none" stroke="rgb(35,35,35)" d="M 5249,4154 C 5846,4154 6354,4290 6872,4589 7389,4887 7761,5259 8059,5776 8358,6294 8494,6802 8494,7399 8494,7996 8358,8504 8059,9022 7761,9539 7389,9911 6872,10209 6354,10508 5846,10644 5249,10644 4652,10644 4144,10508 3627,10209 3109,9911 2737,9539 2439,9022 2140,8504 2004,7996 2004,7399 2004,6802 2140,6294 2439,5777 2737,5259 3109,4887 3626,4589 4144,4290 4652,4154 5249,4154 L 5249,4154 Z"/>
        </g>
       </g>
      </g>
      <g class="Graphic">
       <g id="id5">
        <rect class="BoundingBox" stroke="none" fill="none" x="2987" y="4737" width="4528" height="4528"/>
        <path fill="rgb(255,157,1)" stroke="none" d="M 7435,8994 C 7435,9103 7346,9193 7237,9193 L 3264,9193 C 3155,9193 3066,9103 3066,8994 L 3066,6214 C 3066,6104 3155,6015 3264,6015 L 7237,6015 C 7346,6015 7435,6104 7435,6214 L 7435,8994 7435,8994 Z"/>
        <path fill="rgb(255,255,79)" stroke="none" d="M 7038,6660 C 7038,6706 7028,6745 7005,6785 6982,6824 6953,6853 6914,6875 6874,6898 6835,6909 6790,6909 6744,6909 6705,6898 6666,6875 6626,6853 6598,6824 6575,6785 6552,6745 6541,6706 6541,6660 6541,6615 6552,6576 6575,6536 6598,6497 6626,6468 6666,6445 6705,6423 6744,6412 6790,6412 6835,6412 6874,6423 6914,6445 6953,6468 6982,6497 7005,6536 7028,6576 7038,6615 7038,6660 L 7038,6660 Z"/>
        <path fill="rgb(255,255,79)" stroke="none" d="M 7038,7455 C 7038,7500 7028,7539 7005,7579 6982,7619 6953,7647 6914,7670 6874,7693 6835,7703 6790,7703 6744,7703 6705,7693 6666,7670 6626,7647 6598,7619 6575,7579 6552,7539 6541,7500 6541,7455 6541,7409 6552,7370 6575,7331 6598,7291 6626,7263 6666,7240 6705,7217 6744,7207 6790,7207 6835,7207 6874,7217 6914,7240 6953,7263 6982,7291 7005,7331 7028,7370 7038,7409 7038,7455 L 7038,7455 Z"/>
        <path fill="rgb(255,128,0)" stroke="none" d="M 5879,6658 C 6249,6936 6216,8206 5879,8518 5481,8888 4126,8888 3728,8518 3392,8206 3358,6936 3728,6658 4166,6330 5441,6330 5879,6658 L 5879,6658 Z"/>
        <path fill="rgb(167,79,0)" stroke="none" d="M 6790,6330 C 6612,6330 6467,6475 6467,6653 6467,6831 6612,6976 6790,6976 6968,6976 7112,6831 7112,6653 7112,6475 6968,6330 6790,6330 L 6790,6330 Z M 6790,6827 C 6694,6827 6616,6749 6616,6653 6616,6557 6694,6479 6790,6479 6885,6479 6963,6557 6963,6653 6963,6749 6885,6827 6790,6827 L 6790,6827 Z"/>
        <path fill="rgb(167,79,0)" stroke="none" d="M 6790,7125 C 6612,7125 6467,7269 6467,7447 6467,7625 6612,7770 6790,7770 6968,7770 7112,7625 7112,7447 7112,7269 6968,7125 6790,7125 L 6790,7125 Z M 6790,7621 C 6694,7621 6616,7543 6616,7447 6616,7352 6694,7274 6790,7274 6885,7274 6963,7352 6963,7447 6963,7543 6885,7621 6790,7621 L 6790,7621 Z"/>
        <path fill="rgb(167,79,0)" stroke="none" d="M 7038,8713 L 6541,8713 C 6500,8713 6467,8747 6467,8788 6467,8829 6500,8862 6541,8862 L 7038,8862 C 7079,8862 7112,8829 7112,8788 7112,8747 7079,8713 7038,8713 L 7038,8713 Z"/>
        <path fill="rgb(167,79,0)" stroke="none" d="M 7038,8416 L 6541,8416 C 6500,8416 6467,8449 6467,8490 6467,8531 6500,8564 6541,8564 L 7038,8564 C 7079,8564 7112,8531 7112,8490 7112,8449 7079,8416 7038,8416 L 7038,8416 Z"/>
        <path fill="rgb(167,79,0)" stroke="none" d="M 7038,8118 L 6541,8118 C 6500,8118 6467,8151 6467,8192 6467,8233 6500,8267 6541,8267 L 7038,8267 C 7079,8267 7112,8233 7112,8192 7112,8151 7079,8118 7038,8118 L 7038,8118 Z"/>
        <path fill="rgb(167,79,0)" stroke="none" d="M 7237,5933 L 5068,5933 5582,4988 C 5642,4979 5688,4928 5688,4866 5688,4797 5632,4741 5564,4741 5495,4741 5440,4797 5440,4866 5440,4884 5444,4901 5451,4917 L 4899,5933 4590,5933 4038,4917 C 4045,4901 4049,4884 4049,4866 4049,4797 3994,4741 3925,4741 3857,4741 3801,4797 3801,4866 3801,4928 3847,4979 3907,4988 L 4421,5933 3264,5933 C 3114,5933 2991,6056 2991,6206 L 2991,8987 C 2991,9137 3114,9260 3264,9260 L 7237,9260 C 7387,9260 7510,9137 7510,8987 L 7510,6206 C 7510,6056 7387,5933 7237,5933 Z M 7237,9111 L 3264,9111 C 3196,9111 3140,9055 3140,8987 L 3140,6206 C 3140,6138 3196,6082 3264,6082 L 4546,6082 C 4546,6082 4546,6082 4546,6082 4546,6082 4546,6082 4546,6082 L 4943,6082 C 4943,6082 4943,6082 4943,6082 4943,6082 4943,6082 4943,6082 L 7237,6082 C 7305,6082 7361,6138 7361,6206 L 7361,8987 C 7361,9055 7305,9111 7237,9111 Z"/>
        <path fill="rgb(167,79,0)" stroke="none" d="M 5924,6591 C 5706,6428 5287,6330 4804,6330 4320,6330 3902,6428 3684,6591 3519,6715 3413,7011 3392,7404 3371,7816 3451,8355 3678,8565 3913,8784 4414,8862 4804,8862 5193,8862 5694,8784 5930,8565 6018,8483 6089,8348 6141,8162 6152,8123 6128,8082 6089,8071 6049,8060 6008,8083 5997,8123 5954,8279 5895,8394 5828,8456 5660,8612 5258,8713 4804,8713 4349,8713 3947,8612 3779,8456 3620,8308 3517,7860 3541,7412 3559,7068 3646,6806 3773,6711 3963,6568 4358,6479 4804,6479 5249,6479 5644,6568 5834,6711 6016,6847 6112,7341 6052,7836 6047,7877 6076,7914 6117,7918 6158,7923 6195,7894 6200,7853 6256,7387 6193,6794 5924,6591 L 5924,6591 Z"/>
       </g>
      </g>
     </g>
    </g>
   </g>
  </g>
 </g>
</svg>